<svg width="48" height="48" viewBox="0 0 48 48" fill="none" xmlns="http://www.w3.org/2000/svg">
<path fill-rule="evenodd" clip-rule="evenodd" d="M23.5 8C26.2483 8 28.4762 10.2099 28.4762 12.9359V25.5491C31.1882 27.2064 33 30.1798 33 33.5769C33 38.7811 28.7467 43 23.5 43C18.2533 43 14 38.7811 14 33.5769C14 30.1798 15.8118 27.2064 18.5238 25.5491V12.9359C18.5238 10.2099 20.7517 8 23.5 8ZM20.7857 26.9193C18.1331 27.9844 16.2619 30.5639 16.2619 33.5769C16.2619 37.542 19.5025 40.7564 23.5 40.7564C27.4975 40.7564 30.7381 37.542 30.7381 33.5769C30.7381 30.5639 28.8669 27.9844 26.2143 26.9193V12.9359C26.2143 11.449 24.9991 10.2436 23.5 10.2436C22.0009 10.2436 20.7857 11.449 20.7857 12.9359V26.9193Z" fill="#231815"/>
<path d="M29.5 33.5C29.5 36.8137 26.8137 39.5 23.5 39.5C20.1863 39.5 17.5 36.8137 17.5 33.5C17.5 30.1863 20.1863 27.5 23.5 27.5C26.8137 27.5 29.5 30.1863 29.5 33.5Z" fill="#00A4EF"/>
<path d="M25 24.5C25 23.6716 24.3284 23 23.5 23C22.6716 23 22 23.6716 22 24.5V31.5C22 32.3284 22.6716 33 23.5 33C24.3284 33 25 32.3284 25 31.5V24.5Z" fill="#00A4EF"/>
</svg>
