<svg viewBox="0 0 34 26" fill="none" xmlns="http://www.w3.org/2000/svg">
<path d="M16.5833 11.6963C16.5833 10.4517 16.5833 9.8294 16.8349 9.28239C17.0865 8.73537 17.559 8.33038 18.504 7.5204L19.4206 6.73469C21.1287 5.27065 21.9827 4.53864 23 4.53864C24.0173 4.53864 24.8713 5.27065 26.5793 6.73469L27.496 7.5204C28.441 8.33038 28.9135 8.73537 29.1651 9.28239C29.4167 9.8294 29.4167 10.4517 29.4167 11.6963V15.5833C29.4167 17.3118 29.4167 18.1761 28.8797 18.713C28.3427 19.25 27.4785 19.25 25.75 19.25H20.25C18.5215 19.25 17.6573 19.25 17.1203 18.713C16.5833 18.1761 16.5833 17.3118 16.5833 15.5833V11.6963Z" fill="#F3F3F3" stroke="#222222"/>
<path d="M25.2917 19.25V14.75C25.2917 14.1977 24.8439 13.75 24.2917 13.75H21.7083C21.156 13.75 20.7083 14.1977 20.7083 14.75V19.25" stroke="#222222" stroke-linecap="round" stroke-linejoin="round"/>
<path d="M5 14.7596C5 13.4019 5 12.723 5.27446 12.1262C5.54892 11.5295 6.06437 11.0877 7.09525 10.2041L8.09525 9.34693C9.95857 7.7498 10.8902 6.95123 12 6.95123C13.1098 6.95123 14.0414 7.7498 15.9047 9.34693L16.9047 10.2041C17.9356 11.0877 18.4511 11.5295 18.7255 12.1262C19 12.723 19 13.4019 19 14.7596V19C19 20.8856 19 21.8284 18.4142 22.4142C17.8284 23 16.8856 23 15 23H9C7.11438 23 6.17157 23 5.58579 22.4142C5 21.8284 5 20.8856 5 19V14.7596Z" fill="#F3F3F3" stroke="#222222"/>
<path d="M14.5 23V18C14.5 17.4477 14.0523 17 13.5 17H10.5C9.94772 17 9.5 17.4477 9.5 18V23" stroke="#222222" stroke-linecap="round" stroke-linejoin="round"/>
</svg>
