<svg viewBox="0 0 9 15" fill="none" xmlns="http://www.w3.org/2000/svg">
<path d="M8.9808 5.18724C8.93958 5.06763 8.83736 4.98123 8.71571 4.96326L4.99466 4.41163L6.7017 0.481827C6.74729 0.37605 6.73825 0.253337 6.6769 0.155894C6.6159 0.0587566 6.511 0 6.39877 0H1.20221C1.0236 0 0.877156 0.14584 0.870818 0.329717L0.63153 7.31352C0.625489 7.48803 0.748135 7.63911 0.915704 7.66396L3.50273 8.04796L0.0413885 14.4926C-0.0397087 14.6443 0.0015071 14.8341 0.137571 14.9357C0.196207 14.9793 0.263887 15 0.331567 15C0.421374 15 0.510514 14.9623 0.575525 14.8894L8.91275 5.53324C8.99585 5.43989 9.02198 5.30682 8.9808 5.18724Z" fill="#FFB900"/>
</svg>
