<svg viewBox="0 0 65 63" fill="none" xmlns="http://www.w3.org/2000/svg">
<path d="M25.6587 12.1803C28.2537 5.7109 29.5512 2.47618 31.6593 2.02786C32.2136 1.90998 32.7865 1.90998 33.3407 2.02786C35.4488 2.47618 36.7463 5.7109 39.3414 12.1803C40.8171 15.8594 41.555 17.6989 42.9357 18.9501C43.3229 19.301 43.7433 19.6136 44.1909 19.8833C45.7867 20.8452 47.7789 21.0236 51.7631 21.3804C58.5076 21.9844 61.8799 22.2864 62.9098 24.2092C63.123 24.6075 63.268 25.0386 63.3388 25.4848C63.6802 27.6391 61.201 29.8946 56.2428 34.4056L54.8659 35.6583C52.5478 37.7672 51.3888 38.8217 50.7184 40.1377C50.3162 40.9271 50.0466 41.7773 49.9202 42.6542C49.7096 44.116 50.049 45.6457 50.7278 48.7052L50.9703 49.7983C52.1877 55.285 52.7963 58.0283 52.0365 59.3768C51.354 60.588 50.0969 61.3635 48.7082 61.4298C47.1622 61.5036 44.9837 59.7286 40.6269 56.1784C37.7565 53.8394 36.3213 52.6699 34.728 52.2131C33.272 51.7956 31.728 51.7956 30.272 52.2131C28.6787 52.6699 27.2435 53.8394 24.3731 56.1784C20.0163 59.7286 17.8379 61.5036 16.2918 61.4298C14.9031 61.3635 13.646 60.588 12.9635 59.3768C12.2037 58.0283 12.8123 55.285 14.0297 49.7983L14.2722 48.7052C14.951 45.6457 15.2904 44.116 15.0798 42.6542C14.9535 41.7773 14.6838 40.9271 14.2817 40.1377C13.6113 38.8217 12.4522 37.7672 10.1341 35.6583L8.75725 34.4056C3.79898 29.8946 1.31985 27.6391 1.66126 25.4848C1.73197 25.0386 1.87698 24.6075 2.09026 24.2092C3.12008 22.2864 6.49237 21.9844 13.2369 21.3804C17.2212 21.0236 19.2133 20.8452 20.8091 19.8833C21.2567 19.6136 21.6771 19.301 22.0643 18.9501C23.445 17.6989 24.1829 15.8594 25.6587 12.1803Z" fill="#FCCE38" stroke="#222222" stroke-width="2"/>
</svg>
