<svg viewBox="0 0 48 48" fill="none" xmlns="http://www.w3.org/2000/svg">
<path fill-rule="evenodd" clip-rule="evenodd" d="M35 24C35 30.0751 30.0751 35 24 35C17.9249 35 13 30.0751 13 24C13 17.9249 17.9249 13 24 13C30.0751 13 35 17.9249 35 24Z" stroke="#231815" stroke-width="2"/>
<line x1="43" y1="24" x2="39" y2="24" stroke="#F25022" stroke-width="2" stroke-linecap="round" stroke-linejoin="round"/>
<line x1="9" y1="24" x2="5" y2="24" stroke="#F25022" stroke-width="2" stroke-linecap="round" stroke-linejoin="round"/>
<line x1="43" y1="24" x2="39" y2="24" stroke="#231815" stroke-width="2" stroke-linecap="round" stroke-linejoin="round"/>
<line x1="9" y1="24" x2="5" y2="24" stroke="#231815" stroke-width="2" stroke-linecap="round" stroke-linejoin="round"/>
<g clip-path="url(#clip0_33_523)">
<line x1="40.4545" y1="33.5001" x2="36.9904" y2="31.5001" stroke="#231815" stroke-width="2" stroke-linecap="round" stroke-linejoin="round"/>
</g>
<g clip-path="url(#clip1_33_523)">
<line x1="11.0096" y1="16.5001" x2="7.54553" y2="14.5001" stroke="#231815" stroke-width="2" stroke-linecap="round" stroke-linejoin="round"/>
</g>
<g clip-path="url(#clip2_33_523)">
<line x1="33.5" y1="40.4545" x2="31.5" y2="36.9904" stroke="#231815" stroke-width="2" stroke-linecap="round" stroke-linejoin="round"/>
</g>
<g clip-path="url(#clip3_33_523)">
<line x1="16.5" y1="11.0097" x2="14.5" y2="7.54561" stroke="#231815" stroke-width="2" stroke-linecap="round" stroke-linejoin="round"/>
</g>
<g clip-path="url(#clip4_33_523)">
<line x1="24" y1="43" x2="24" y2="39" stroke="#231815" stroke-width="2" stroke-linecap="round" stroke-linejoin="round"/>
</g>
<g clip-path="url(#clip5_33_523)">
<line x1="24" y1="9" x2="24" y2="5" stroke="#231815" stroke-width="2" stroke-linecap="round" stroke-linejoin="round"/>
</g>
<g clip-path="url(#clip6_33_523)">
<line x1="14.5" y1="40.4545" x2="16.5" y2="36.9904" stroke="#231815" stroke-width="2" stroke-linecap="round" stroke-linejoin="round"/>
</g>
<g clip-path="url(#clip7_33_523)">
<line x1="31.5" y1="11.0097" x2="33.5" y2="7.54561" stroke="#231815" stroke-width="2" stroke-linecap="round" stroke-linejoin="round"/>
</g>
<g clip-path="url(#clip8_33_523)">
<line x1="7.54551" y1="33.4999" x2="11.0096" y2="31.4999" stroke="#231815" stroke-width="2" stroke-linecap="round" stroke-linejoin="round"/>
</g>
<g clip-path="url(#clip9_33_523)">
<line x1="36.9904" y1="16.4999" x2="40.4545" y2="14.4999" stroke="#231815" stroke-width="2" stroke-linecap="round" stroke-linejoin="round"/>
</g>
<path d="M34 24C34 29.5228 29.5228 34 24 34C18.4772 34 14 29.5228 14 24C14 18.4772 18.4772 14 24 14C29.5228 14 34 18.4772 34 24Z" fill="#FFB900"/>
<defs>
<clipPath id="clip0_33_523">
<rect x="36.2583" y="28.7681" width="8" height="4" rx="2" transform="rotate(30 36.2583 28.7681)" fill="white"/>
</clipPath>
<clipPath id="clip1_33_523">
<rect x="6.81348" y="11.7681" width="8" height="4" rx="2" transform="rotate(30 6.81348 11.7681)" fill="white"/>
</clipPath>
<clipPath id="clip2_33_523">
<rect x="32.2321" y="34.2583" width="8" height="4" rx="2" transform="rotate(60 32.2321 34.2583)" fill="white"/>
</clipPath>
<clipPath id="clip3_33_523">
<rect x="15.2321" y="4.81348" width="8" height="4" rx="2" transform="rotate(60 15.2321 4.81348)" fill="white"/>
</clipPath>
<clipPath id="clip4_33_523">
<rect x="26" y="37" width="8" height="4" rx="2" transform="rotate(90 26 37)" fill="white"/>
</clipPath>
<clipPath id="clip5_33_523">
<rect x="26" y="3" width="8" height="4" rx="2" transform="rotate(90 26 3)" fill="white"/>
</clipPath>
<clipPath id="clip6_33_523">
<rect x="19.2321" y="36.2583" width="8" height="4" rx="2" transform="rotate(120 19.2321 36.2583)" fill="white"/>
</clipPath>
<clipPath id="clip7_33_523">
<rect x="36.2321" y="6.81348" width="8" height="4" rx="2" transform="rotate(120 36.2321 6.81348)" fill="white"/>
</clipPath>
<clipPath id="clip8_33_523">
<rect x="13.7417" y="32.2319" width="8" height="4" rx="2" transform="rotate(150 13.7417 32.2319)" fill="white"/>
</clipPath>
<clipPath id="clip9_33_523">
<rect x="43.1865" y="15.2319" width="8" height="4" rx="2" transform="rotate(150 43.1865 15.2319)" fill="white"/>
</clipPath>
</defs>
</svg>
